<svg width="194" height="22" viewBox="0 0 194 22" fill="none" xmlns="http://www.w3.org/2000/svg">
<g clip-path="url(#clip0_258_2533)">
<path d="M17.3707 0.339111C15.8668 0.339111 14.4788 0.834032 13.3623 1.66901V12.313C14.4788 13.148 15.8668 13.6429 17.3707 13.6429C21.0606 13.6429 24.0515 10.6648 24.0515 6.99073C24.0515 3.31661 21.0606 0.339111 17.3707 0.339111Z" fill="#29525E"/>
<path d="M10.6891 6.99114C10.6891 4.81509 11.7388 2.88277 13.3614 1.66889V0.338989H10.6891C4.78553 0.338989 0 5.10406 0 10.9824C0 16.8608 4.78553 21.6259 10.6891 21.6259H13.3614V12.3134C11.7388 11.0995 10.6891 9.16773 10.6891 6.99114Z" fill="#29525E"/>
<path d="M42.929 15.7711C42.929 17.8982 42.0439 18.9008 40.579 18.9008C38.8698 18.9008 38.1985 17.5336 38.1985 14.6163V7.38406C38.1985 4.46669 38.8698 3.09954 40.579 3.09954C42.0135 3.09954 42.8985 4.10215 42.929 6.13824V7.77893H46.3468V6.35058C46.3164 2.4306 44.1802 -0.000366211 40.579 -0.000366211C36.5812 -0.000366211 34.7197 2.8558 34.7197 7.65706V14.3422C34.7197 19.1435 36.5812 21.9996 40.579 21.9996C44.3325 21.9996 46.3468 19.4473 46.3773 15.588V14.1293H42.929V15.77V15.7711Z" fill="#29525E"/>
<path d="M56.0018 0C52.0041 0 50.1426 2.85617 50.1426 7.65743V14.3426C50.1426 19.1438 52.0041 22 56.0018 22C59.9996 22 61.8611 19.1438 61.8611 14.3426V7.65743C61.8611 2.85617 59.9691 0 56.0018 0ZM58.3823 14.6161C58.3823 17.5335 57.711 18.9006 56.0018 18.9006C54.2926 18.9006 53.6214 17.5335 53.6214 14.6161V7.38389C53.6214 4.46652 54.2926 3.09937 56.0018 3.09937C57.711 3.09937 58.3823 4.46705 58.3823 7.38389V14.6161Z" fill="#29525E"/>
<path d="M73.4212 16.3483C73.4212 17.989 72.7499 18.9006 71.3763 18.9006C70.0028 18.9006 69.3011 17.989 69.3011 16.3483V0.364502H65.8223V15.9226C65.8223 19.8122 67.7142 22 71.3763 22C75.0385 22 76.9 19.8122 76.9 15.9226V0.364502H73.4212V16.3483Z" fill="#29525E"/>
<path d="M89.2724 13.2793L84.908 0.364502H81.124V21.6354H84.42V7.83993L89.2109 21.6354H92.5678V0.364502H89.2724V13.2793Z" fill="#29525E"/>
<path d="M96.1377 3.46387H100.136V21.6354H103.615V3.46387H107.582V0.364502H96.1377V3.46387Z" fill="#29525E"/>
<path d="M114.846 11.9722H119.759V8.84254H114.846V3.46387H121.071V0.364502H111.366V21.6354H121.254V18.5361H114.846V11.9722Z" fill="#29525E"/>
<path d="M135.744 7.35352V5.7735C135.744 2.30959 133.913 0.364502 130.159 0.364502H125.032V21.6354H128.511V12.6715H130.006L132.57 21.6354H136.079L133.241 12.0638C134.92 11.2735 135.744 9.66315 135.744 7.35405V7.35352ZM132.265 7.41419C132.265 8.93354 131.502 9.60195 130.007 9.60195H128.512V3.49421H130.007C131.502 3.49421 132.265 4.19295 132.265 5.68197V7.41419Z" fill="#29525E"/>
<path d="M145.081 0.364502H140.046V21.6354H143.525V12.9142H145.081C148.865 12.9142 150.849 10.9696 150.849 7.44452V5.83417C150.849 2.30906 148.865 0.364502 145.081 0.364502ZM147.37 7.53605C147.37 9.05541 146.668 9.81482 145.112 9.81482H143.525V3.46387H145.112C146.668 3.46387 147.37 4.19295 147.37 5.74263V7.53552V7.53605Z" fill="#29525E"/>
<path d="M156.83 0.364502L152.283 21.6354H155.762L156.647 16.9257H161.255L162.14 21.6354H165.619L161.072 0.364502H156.83ZM157.227 13.8258L158.936 4.58835L160.676 13.8258H157.227H157.227Z" fill="#29525E"/>
<path d="M179.473 7.35352V5.7735C179.473 2.30959 177.642 0.364502 173.889 0.364502H168.762V21.6354H172.241V12.6715H173.736L176.299 21.6354H179.809L176.971 12.0638C178.65 11.2735 179.473 9.66315 179.473 7.35405V7.35352ZM175.995 7.41419C175.995 8.93354 175.231 9.60195 173.736 9.60195H172.241V3.49421H173.736C175.232 3.49421 175.995 4.19295 175.995 5.68197V7.41419Z" fill="#29525E"/>
<path d="M182.555 0.364502V3.46387H186.552V21.6354H190.032V3.46387H193.999V0.364502H182.555Z" fill="#29525E"/>
</g>
<defs>
<clipPath id="clip0_258_2533">
<rect width="194" height="22" fill="white"/>
</clipPath>
</defs>
</svg>
